<?xml version="1.0" encoding="UTF-8"?>
<!DOCTYPE svg PUBLIC "-//W3C//DTD SVG 1.1//EN" "http://www.w3.org/Graphics/SVG/1.1/DTD/svg11.dtd">
<!-- Creator: CorelDRAW -->
<svg xmlns="http://www.w3.org/2000/svg" xml:space="preserve" width="16.9334mm" height="6.5192mm" style="shape-rendering:geometricPrecision; text-rendering:geometricPrecision; image-rendering:optimizeQuality; fill-rule:evenodd; clip-rule:evenodd"
viewBox="0 0 16.9336 6.51928"
 xmlns:xlink="http://www.w3.org/1999/xlink">
 <defs>
  <style type="text/css">
   <![CDATA[
    .fil0 {fill:#009CD8}
    .fil1 {fill:#223F98}
    .fil3 {fill:#63B7E5}
    .fil2 {fill:#A8DEF0}
   ]]>
  </style>
 </defs>
 <g id="Layer_x0020_1">
  <metadata id="CorelCorpID_0Corel-Layer"/>
  <g id="_210470032">
   <path id="_111431192" class="fil0" d="M1.91122 0.000800009c0,0 0.636908,-0.0440005 1.10271,0.499706 0,0 0.128302,0.146502 0.199602,0.312004l0.560907 0.00470006 -0.280503 0.368904 -0.171102 0.00470006 0.00790009 0.195802 0.384105 0 -0.284003 0.368204 -0.144302 0c0,0 -0.156202,0.518906 -0.613107,0.792509 -0.457005,0.273703 -0.914011,0.199502 -0.914011,0.199502 0,0 -0.167702,-0.0102001 -0.323704,-0.084201l-0.548306 1.05351c0,0 -0.0434005,0.0976012 -0.0994012,0.115101l-0.397805 0c0,0 -0.0386005,-0.0210002 0.0116001,-0.119901 0.0502006,-0.0989012 0.82671,-1.58592 0.82671,-1.58592 0,0 0.0186002,-0.081101 0.132702,-0.083501 0.114101,-0.00230003 0.337504,-0.00230003 0.337504,-0.00230003 0,0 0.0652008,-0.00230003 0.00470006,0.101901 -0.0605007,0.104201 -0.0675008,0.127402 -0.0675008,0.127402 0,0 0.211803,0.0996012 0.470206,0.0440005 0.258503,-0.0556007 0.363204,-0.139002 0.363204,-0.139002 0,0 0.302704,-0.215403 0.349204,-0.416705l-1.50152 0 0.188602 -0.377504 1.39452 0c0,0 0.0186002,-0.148202 -0.0186002,-0.178302l-1.46902 0 0.202502 -0.372804 1.09651 0c0,0 -0.144302,-0.289403 -0.609907,-0.391405 0,0 -0.363204,-0.0208002 -0.500506,-0.0115001l0.310204 -0.424905 -0.000100001 0z"/>
   <path id="_111792864" class="fil0" d="M2.16853 3.70324l1.81612 -2.11292c0,0 0.00360004,-0.081901 0.275803,-0.0748009 0,0 0.292603,-0.0163002 0.292603,0.0609007 0,0.0772009 -0.433605,2.10712 -0.433605,2.10712 0,0 -0.0206002,0.134502 -0.221003,0.124801 0,0 -0.253803,0.0107001 -0.241203,-0.0427005 0.0128002,-0.0533006 0.110001,-0.491106 0.110001,-0.491106l-0.795309 0 -0.399805 0.476606c0,0 -0.0213003,0.0579007 -0.258003,0.0579007 -0.236703,0 -0.145602,-0.105801 -0.145602,-0.105801zm1.88962 -1.71502l-0.204202 0.943711 -0.589007 0 0.793209 -0.943711z"/>
   <path id="_111794208" class="fil0" d="M4.93136 2.93283l0.0662008 -1.27152c0,0 -0.0497006,-0.138402 0.215303,-0.141702 0.264903,-0.00330004 0.245103,0.0495006 0.245103,0.0495006l-0.0895011 0.942111 0.87771 -0.932311c0,0 0.0397005,-0.0758009 0.268203,-0.0593007 0,0 0.188802,-0.0132002 0.198802,0.0429005 0,0 0.0198002,0.00660008 -0.0597007,0.085701 -0.0794009,0.0790009 -1.30822,1.30452 -1.30822,1.30452l-0.397405 0.760909c0,0 -0.0165002,0.0889011 -0.225203,0.0889011 0,0 -0.238403,0.0297004 -0.228503,-0.0494006 0.00990012,-0.0790009 0.437205,-0.82021 0.437205,-0.82021l0 -0.000100001z"/>
   <path id="_113264560" class="fil0" d="M6.77608 1.63782l-0.578207 2.01952c0,0 -0.082101,0.159702 0.167802,0.152502 0.249803,-0.00700008 0.292603,-0.0212003 0.292603,-0.0212003 0,0 0.0500006,0.0142002 0.164202,-0.131302 0.114001,-0.145602 1.04551,-1.38422 1.04551,-1.38422l-0.396105 1.40542c0,0 -0.0428005,0.106601 0.0678008,0.127902l0.371104 -0.00360004c0,0 0.0642008,0.0177002 0.199802,-0.159702 0.135602,-0.177502 1.54852,-1.97692 1.54852,-1.97692 0,0 0.121401,-0.138402 -0.0321004,-0.138402 -0.153402,0 -0.249803,0.00350004 -0.249803,0.00350004 0,0 -0.0642008,0 -0.124901,0.0781009 -0.0606007,0.0781009 -1.26311,1.70372 -1.26311,1.70372l0.488806 -1.71432c0,0 0.0572007,-0.0781009 -0.157002,-0.0781009l-0.196202 0c0,0 -0.0571007,-0.00710008 -0.160602,0.134802 -0.103501,0.142102 -1.27392,1.66822 -1.27392,1.66822l0.531806 -1.70012c0,0 0.0642008,-0.106401 -0.146402,-0.0958011l-0.185502 -0.00360004c0,0 -0.0928011,-0.00350004 -0.114201,0.113601l0.000100001 0z"/>
   <path id="_111432920" class="fil0" d="M10.8616 1.49232c0,0 -0.378104,-0.0285003 -0.86351,0.319404 -0.485306,0.347804 -0.763509,0.990212 -0.763509,0.990212 0,0 -0.264203,0.507506 -0.114201,0.81281 0.149902,0.305204 0.86351,0.188102 0.86351,0.188102 0,0 0.656608,-0.134902 1.06331,-0.755909 0.406805,-0.621207 0.453205,-0.958411 0.453205,-0.958411 0,0 0.114201,-0.443605 -0.274803,-0.553607 0,0 -0.182002,-0.0568007 -0.364004,-0.0426005l0 0zm0.0535006 0.418705c0,0 -0.110601,-0.085101 -0.421005,-0.00350004 -0.310504,0.081601 -0.635208,0.574907 -0.635208,0.574907 0,0 -0.235503,0.333604 -0.289003,0.681508 -0.0535006,0.347804 0.396205,0.284003 0.396205,0.284003 0,0 0.346104,-0.0710008 0.585207,-0.369204 0.238903,-0.298204 0.371104,-0.585607 0.371104,-0.585607 0,0 0.224803,-0.479206 -0.00720009,-0.582107l-0.000100001 0z"/>
   <path id="_113264224" class="fil0" d="M12.1747 1.67332l-1.06691 2.00522c0,0 -0.100001,0.113601 0.0678008,0.124301 0.167702,0.0106001 0.296203,-0.0143002 0.324704,-0.0498006 0.0286003,-0.0354004 0.446005,-0.83761 0.446005,-0.83761 0,0 0.00580007,-0.0616007 0.137702,-0.0481006 0.131902,0.0136002 0.192102,0.0290003 0.207602,0.115801 0.0155002,0.086901 -0.0931011,0.686908 -0.0931011,0.686908 0,0 -0.0505006,0.129302 0.087301,0.137102 0.137702,0.00770009 0.271603,0 0.271603,0 0,0 0.108601,0.00970011 0.124101,-0.133202 0.0156002,-0.142802 0.0776009,-0.640708 0.0776009,-0.640708 0,0 0.0194002,-0.160102 -0.0543006,-0.254703l-0.0213003 -0.0309004c0,0 0.329804,-0.084901 0.529606,-0.333804 0.199802,-0.249003 0.250303,-0.461205 0.250303,-0.461205 0,0 0.0485006,-0.177602 -0.0544006,-0.289503 -0.102801,-0.111901 -0.420905,-0.135002 -0.420905,-0.135002l-0.615007 0c0,0 -0.112501,-0.00770009 -0.198402,0.145102l0 0.000100001zm0.316704 0.215703l-0.331704 0.636808c0,0 0.345304,0.0425005 0.518006,-0.0791009 0.172602,-0.121601 0.236603,-0.262503 0.236603,-0.262503 0,0 0.0990012,-0.200602 -0.00580007,-0.260503 -0.104801,-0.0598007 -0.417205,-0.0347004 -0.417205,-0.0347004l0.000100001 0z"/>
   <path id="_113265352" class="fil0" d="M14.1067 1.58422l-1.10191 2.06002c0,0 -0.082101,0.155502 0.0548006,0.163302 0.136702,0.00780009 0.965111,0 0.965111,0 0,0 0.0782009,-0.00780009 0.164202,-0.171002 0,0 0.125101,-0.217703 0.0352004,-0.229303l-0.648708 0 0.941711 -1.78802c0,0 0.0742009,-0.101101 -0.0547006,-0.0895011l-0.246203 0c0,0 -0.0626007,-0.0116001 -0.109501,0.0545006l0 0z"/>
   <path id="_113264488" class="fil0" d="M14.4272 3.66374l1.05511 -1.97852c0,0 0.0351004,-0.139802 0.191502,-0.147702 0.156402,-0.00780009 0.742409,0.00790009 0.742409,0.00790009 0,0 0.483606,0.00770009 0.517306,0.446905 0,0 -0.0561007,0.719108 -0.650108,1.29442 0,0 -0.285303,0.334304 -0.87151,0.482006 0,0 -0.397905,0.0449005 -0.85971,0.0232003 0,0 -0.226603,0.0312004 -0.125001,-0.128202zm0.554907 -0.244903l0.80501 -1.52372c0,0 0.382705,-0.0254003 0.483606,0.0268003 0.100801,0.0521006 0.118301,0.088701 0.147402,0.165902 0.0291003,0.0772009 0,0.260503 -0.0621007,0.399405 -0.0622007,0.139002 -0.132002,0.293403 -0.236803,0.422705 -0.104701,0.129202 -0.345304,0.335704 -0.345304,0.335704 0,0 -0.203702,0.133202 -0.391905,0.169802l-0.400005 0.00350004 0.000100001 -0.000100001z"/>
   <path id="_113264752" class="fil1" d="M12.3722 4.46225c0,0 -0.180402,-0.220003 -0.707108,-0.188202 -0.526706,0.0320004 -0.84681,0.266403 -0.84681,0.266403 0,0 -0.419105,0.266303 -0.596607,0.561507 -0.177502,0.295203 -0.352704,0.534906 -0.352704,0.88261 0,0.347704 0.233103,0.417305 0.233103,0.417305 0,0 0.256403,0.173902 0.798309,0.0927011 0,0 0.430005,-0.0785009 0.497006,-0.156602l0.532506 -0.975512c0,0 0.084401,-0.124501 -0.0786009,-0.118701 -0.162902,0.00580007 -0.736209,0 -0.736209,0 0,0 -0.113501,0.0926011 -0.168802,0.237303 0,0 -0.0582007,0.0955011 0.0466006,0.101401 0.104701,0.00580007 0.369504,-0.00290003 0.369504,-0.00290003l-0.221103 0.440005c0,0 -0.0204002,0.104101 -0.200802,0.118601 -0.180402,0.0145002 -0.343404,0.0261003 -0.465605,-0.0579007 -0.122201,-0.083901 -0.110601,-0.272103 -0.110601,-0.272103 0,0 0.0176002,-0.318404 0.212403,-0.550006 0,0 0.227003,-0.358804 0.593707,-0.529606 0,0 0.285203,-0.159202 0.646008,-0.086901 0,0 0.154202,0.0290003 0.273603,0.118701 0,0 0.0699008,0.0956011 0.139702,0.0088001 0.0699008,-0.086901 0.163002,-0.202702 0.142602,-0.306904l-0.000100001 0z"/>
   <path id="_113263696" class="fil1" d="M13.9116 4.39685c0,0 -0.0791009,-0.180702 -0.626207,-0.118101 -0.547106,0.0626007 -0.82411,0.616007 -0.82411,0.616007 0,0 -0.0908011,0.157502 -0.0373004,0.370404 0,0 0.00930011,0.0903011 0.237503,0.257003 0.228103,0.166902 0.214103,0.222403 0.214103,0.222403 0,0 0.0257003,0.106501 -0.0745009,0.222303 -0.100101,0.115801 -0.188502,0.164402 -0.370104,0.189902 0,0 -0.190902,0.0209002 -0.353904,-0.0579007 0,0 -0.0792009,-0.0487006 -0.0932011,-0.0741009 -0.0140002,-0.0255003 -0.104701,-0.0463005 -0.130402,0.00230003 -0.0256003,0.0486006 -0.132702,0.208502 -0.132702,0.208502 0,0 -0.085501,0.112801 0.0545006,0.182702 0.140002,0.0698008 0.478406,0.174502 0.893711,0.0245003 0.415405,-0.150202 0.602407,-0.487406 0.602407,-0.487406 0,0 0.253803,-0.356604 0.0256003,-0.602107 -0.228203,-0.245503 -0.430405,-0.222603 -0.369804,-0.454505 0.0606007,-0.231903 0.270603,-0.269103 0.270603,-0.269103 0,0 0.205102,-0.0648008 0.382305,0.0233003 0.177202,0.088101 0.140602,0.132902 0.212803,0.0588007 0.0722009,-0.0741009 0.130402,-0.243103 0.130402,-0.243103 0,0 0.0256003,-0.0486006 -0.0118001,-0.0718008l0.000100001 0z"/>
   <path id="_111244112" class="fil1" d="M14.3307 4.48485l-1.00701 1.89342c0,0 -0.087201,0.137402 0.157202,0.109501l0.186302 0c0,0 0.0536006,0.00230003 0.118801,-0.129502 0.0652008,-0.132102 0.318904,-0.632207 0.318904,-0.632207l0.391105 0c0,0 0.416805,-0.0185002 0.745009,-0.324204 0.328304,-0.305704 0.405105,-0.646108 0.405105,-0.646108 0,0 0.106801,-0.458205 -0.491706,-0.458205 -0.598607,0 -0.613707,0 -0.613707,0 0,0 -0.144802,0.0267003 -0.210002,0.187302l0 0zm0.342904 0.168602l-0.372204 0.728309c0,0 0.422305,0.0674008 0.635908,-0.174602 0.213503,-0.241903 0.203002,-0.331504 0.203002,-0.331504 0,0 0.0548006,-0.232703 -0.140002,-0.230303 -0.194902,0.00230003 -0.326704,0.0081001 -0.326704,0.0081001l0 0z"/>
   <polygon id="_113233784" class="fil1" points="0.486106,4.61835 0.421705,4.81056 9.87452,4.81056 9.92712,4.61525 "/>
   <polygon id="_113095600" class="fil0" points="0.357504,5.12296 0.294603,5.31516 9.52031,5.31516 9.57171,5.11976 "/>
   <polygon id="_113095720" class="fil2" points="0.0634007,6.10427 0.000100001,6.29657 9.30081,6.29657 9.35271,6.10107 "/>
   <polygon id="_113095648" class="fil3" points="0.223303,5.61457 0.161102,5.80687 9.27611,5.80687 9.32691,5.61147 "/>
  </g>
 </g>
</svg>
