<?xml version="1.0" encoding="UTF-8"?>
<!DOCTYPE svg PUBLIC "-//W3C//DTD SVG 1.1//EN" "http://www.w3.org/Graphics/SVG/1.1/DTD/svg11.dtd">
<!-- Creator: CorelDRAW -->
<svg xmlns="http://www.w3.org/2000/svg" xml:space="preserve" width="244.397mm" height="94.5965mm" style="shape-rendering:geometricPrecision; text-rendering:geometricPrecision; image-rendering:optimizeQuality; fill-rule:evenodd; clip-rule:evenodd"
viewBox="0 0 264.64 102.432"
 xmlns:xlink="http://www.w3.org/1999/xlink">
 <defs>
  <style type="text/css">
   <![CDATA[
    .fil0 {fill:#009CD8}
    .fil1 {fill:#223F98}
    .fil3 {fill:#63B7E5}
    .fil2 {fill:#A8DEF0}
   ]]>
  </style>
 </defs>
 <g id="Layer_x0020_1">
  <metadata id="CorelCorpID_0Corel-Layer"/>
  <g id="_119155576">
   <path id="_119157544" class="fil0" d="M29.868 0.0129939c0,0 9.95377,-0.691601 17.2334,7.85082 0,0 2.00561,2.30274 3.11984,4.90261l8.76526 0.0742819 -4.38263 5.79399 -2.67415 0.0742819 0.122793 3.07739 6.00319 0 -4.43872 5.78489 -2.25564 0c0,0 -2.44004,8.15163 -9.58172,12.4512 -7.14167,4.29958 -14.2833,3.13359 -14.2833,3.13359 0,0 -2.62185,-0.158418 -5.05951,-1.32267l-8.56797 16.5534c0,0 -0.678499,1.53339 -1.55375,1.80756l-6.21781 0c0,0 -0.601727,-0.329071 0.182348,-1.8826 0.784075,-1.55353 12.9191,-24.9192 12.9191,-24.9192 0,0 0.291064,-1.2734 2.07383,-1.30979 1.78277,-0.036383 5.27553,-0.036383 5.27553,-0.036383 0,0 1.01872,-0.036383 0.0727659,1.60085 -0.945957,1.63723 -1.05511,2.00106 -1.05511,2.00106 0,0 3.31085,1.56447 7.34936,0.691276 4.03851,-0.873191 5.67574,-2.18298 5.67574,-2.18298 0,0 4.72979,-3.38362 5.45745,-6.54893l-23.467 0 2.94702 -5.93042 21.7934 0c0,0 0.291064,-2.32851 -0.291064,-2.80149l-22.9577 0 3.16532 -5.85766 17.1364 0c0,0 -2.25574,-4.54787 -9.53234,-6.14872 0,0 -5.67574,-0.327447 -7.82234,-0.181915l4.84803 -6.67443z"/>
   <path id="_119156656" class="fil0" d="M33.8897 58.186l28.3829 -33.1974c0,0 0.0559821,-1.28759 4.31062,-1.17562 0,0 4.57039,-0.25598 4.57039,0.956786 0,1.21277 -6.77633,33.1066 -6.77633,33.1066 0,0 -0.322574,2.114 -3.45281,1.96165 0,0 -3.96585,0.167622 -3.76834,-0.670161 0.197508,-0.837783 1.71823,-7.7172 1.71823,-7.7172l-12.4308 0 -6.24574 7.48883c0,0 -0.333511,0.909574 -4.03245,0.909574 -3.69894,0 -2.27567,-1.66301 -2.27567,-1.66301zm29.5304 -26.947l-3.19087 14.8295 -9.20533 0 12.3962 -14.8295z"/>
   <path id="_119156248" class="fil0" d="M77.0669 46.0817l1.03518 -19.979c0,0 -0.776387,-2.17388 3.36434,-2.22564 4.14073,-0.0517591 3.83017,0.776387 3.83017,0.776387l-1.3975 14.8031 13.7162 -14.6478c0,0 0.621109,-1.19046 4.19249,-0.931664 0,0 2.95027,-0.207036 3.10555,0.672868 0,0 0.310555,0.103518 -0.931664,1.34574 -1.24222,1.24222 -20.4448,20.4966 -20.4448,20.4966l-6.21109 11.9564c0,0 -0.258796,1.3975 -3.51962,1.3975 0,0 -3.72666,0.465832 -3.57138,-0.776387 0.155277,-1.24222 6.8322,-12.888 6.8322,-12.888z"/>
   <path id="_119156968" class="fil0" d="M105.897 25.7335l-9.03402 31.7306c0,0 -1.28261,2.50945 2.62098,2.39792 3.90359,-0.111531 4.57278,-0.334593 4.57278,-0.334593 0,0 0.780718,0.223062 2.56522,-2.06333 1.7845,-2.28639 16.3393,-21.7486 16.3393,-21.7486l-6.18998 22.0832c0,0 -0.669187,1.67297 1.05955,2.00756l5.79962 -0.0557656c0,0 1.00378,0.278828 3.12287,-2.50945 2.11909,-2.78828 24.2023,-31.0614 24.2023,-31.0614 0,0 1.89603,-2.17486 -0.50189,-2.17486 -2.39792,0 -3.90359,0.0557656 -3.90359,0.0557656 0,0 -1.00378,0 -1.95179,1.22684 -0.948015,1.22684 -19.741,26.7675 -19.741,26.7675l7.63988 -26.9348c0,0 0.892249,-1.22684 -2.45368,-1.22684l-3.06711 0c0,0 -0.892249,-0.111531 -2.50945,2.11909 -1.6172,2.23062 -19.9083,26.2098 -19.9083,26.2098l8.30907 -26.7117c0,0 1.00378,-1.67297 -2.28639,-1.50567l-2.89981 -0.0557656c0,0 -1.4499,-0.0557656 -1.7845,1.7845z"/>
   <path id="_119156584" class="fil0" d="M169.748 23.4471c0,0 -5.91115,-0.446125 -13.4953,5.0189 -7.58412,5.46503 -11.9338,15.5586 -11.9338,15.5586 0,0 -4.12665,7.97448 -1.7845,12.7703 2.34215,4.79584 13.4953,2.95558 13.4953,2.95558 0,0 10.2609,-2.11909 16.6181,-11.8781 6.35727,-9.75897 7.08223,-15.0567 7.08223,-15.0567 0,0 1.7845,-6.9707 -4.29395,-8.69943 0,0 -2.84404,-0.892249 -5.68809,-0.669187zm0.836484 6.58034c0,0 -1.72873,-1.33837 -6.58034,-0.0557656 -4.8516,1.28261 -9.92627,9.03402 -9.92627,9.03402 0,0 -3.68053,5.24196 -4.51701,10.707 -0.836484,5.46503 6.18998,4.46125 6.18998,4.46125 0,0 5.40926,-1.11531 9.14555,-5.79962 3.73629,-4.68431 5.79962,-9.20132 5.79962,-9.20132 0,0 3.51323,-7.52835 -0.111531,-9.14555z"/>
   <path id="_119156776" class="fil0" d="M190.27 26.2911l-16.6739 31.5075c0,0 -1.56144,1.7845 1.05955,1.95179 2.62098,0.167297 4.62854,-0.223062 5.07467,-0.780718 0.446125,-0.557656 6.9707,-13.1607 6.9707,-13.1607 0,0 0.0898746,-0.968047 2.15158,-0.755813 2.0617,0.212234 3.0016,0.454787 3.24415,1.81915 0.242553,1.36436 -1.45532,10.7936 -1.45532,10.7936 0,0 -0.788298,2.03138 1.36436,2.15266 2.15266,0.121277 4.24468,0 4.24468,0 0,0 1.69787,0.151596 1.94043,-2.09202 0.242553,-2.24362 1.21277,-10.066 1.21277,-10.066 0,0 0.303191,-2.51649 -0.848936,-4.00213l-0.333511 -0.485106c0,0 5.15425,-1.33404 8.27713,-5.24521 3.12287,-3.91117 3.91117,-7.24628 3.91117,-7.24628 0,0 0.757979,-2.78936 -0.848936,-4.54787 -1.60691,-1.75851 -6.57925,-2.12234 -6.57925,-2.12234l-9.61117 0c0,0 -1.75851,-0.121277 -3.10013,2.27935zm4.9496 3.39033l-5.18457 10.0053c0,0 5.39681,0.667021 8.09521,-1.24308 2.6984,-1.91011 3.69894,-4.1234 3.69894,-4.1234 0,0 1.54628,-3.15319 -0.0909574,-4.09308 -1.63723,-0.939893 -6.51862,-0.545745 -6.51862,-0.545745z"/>
   <path id="_119156704" class="fil0" d="M220.463 24.8919l-17.2221 32.3679c0,0 -1.2825,2.44286 0.855,2.565 2.1375,0.122143 15.0846,0 15.0846,0 0,0 1.22143,-0.122143 2.565,-2.68714 0,0 1.95429,-3.42 0.549643,-3.60321l-10.1379 0 14.7182 -28.0929c0,0 1.16036,-1.58786 -0.855,-1.40464l-3.8475 0c0,0 -0.977143,-0.183214 -1.71,0.855z"/>
   <path id="_119156440" class="fil0" d="M225.471 57.5651l16.4893 -31.0854c0,0 0.549643,-2.19857 2.9925,-2.32071 2.44286,-0.122143 11.6036,0.122143 11.6036,0.122143 0,0 7.5564,0.122143 8.08373,7.02321 0,0 -0.877306,11.2982 -10.1602,20.3368 0,0 -4.45821,5.25214 -13.6189,7.57286 0,0 -6.219,0.706869 -13.4357,0.366429 0,0 -3.54214,0.488571 -1.95429,-2.01536zm8.67214 -3.8475l12.5807 -23.94c0,0 5.9811,-0.399346 7.5577,0.41927 1.5766,0.818617 1.84947,1.39468 2.30425,2.60745 0.454787,1.21277 0,4.09308 -0.970213,6.27606 -0.970213,2.18298 -2.0617,4.60851 -3.69894,6.63989 -1.63723,2.03138 -5.39681,5.27553 -5.39681,5.27553 0,0 -3.18351,2.09202 -6.12447,2.66808l-6.25224 0.0537082z"/>
   <path id="_119156368" class="fil1" d="M193.355 70.112c0,0 -2.81968,-3.45638 -11.0513,-2.95612 -8.23165,0.500266 -13.2343,4.18404 -13.2343,4.18404 0,0 -6.54893,4.18404 -9.32314,8.82287 -2.7742,4.63883 -5.51235,8.40328 -5.51235,13.8672 0,5.46394 3.64263,6.55673 3.64263,6.55673 0,0 4.00689,2.73197 12.476,1.45705 0,0 6.7211,-1.23366 7.76711,-2.46159l8.3226 -15.3263c0,0 1.31888,-1.95558 -1.22793,-1.86463 -2.54681,0.0909574 -11.5061,0 -11.5061,0 0,0 -1.77367,1.45532 -2.63777,3.72925 0,0 -0.909574,1.5008 0.727659,1.59176 1.63723,0.0909574 5.7758,-0.0454787 5.7758,-0.0454787l-3.45638 6.91276c0,0 -0.318351,1.63723 -3.13803,1.86463 -2.81968,0.227394 -5.36649,0.409308 -7.27659,-0.909574 -1.91011,-1.31888 -1.72819,-4.275 -1.72819,-4.275 0,0 0.272872,-5.00266 3.31995,-8.64096 0,0 3.54734,-5.63936 9.27766,-8.3226 0,0 4.45691,-2.50133 10.0963,-1.36436 0,0 2.41037,0.454787 4.275,1.86463 0,0 1.09149,1.5008 2.18298,0.136436 1.09149,-1.36436 2.54681,-3.18351 2.22846,-4.82074z"/>
   <path id="_119156536" class="fil1" d="M217.413 69.0842c0,0 -1.23702,-2.83787 -9.78702,-1.85553 -8.55,0.98234 -12.8796,9.67787 -12.8796,9.67787 0,0 -1.41894,2.47404 -0.582128,5.82128 0,0 0.145532,1.41894 3.71106,4.03851 3.56553,2.61957 3.34723,3.49277 3.34723,3.49277 0,0 0.400213,1.67362 -1.16426,3.49277 -1.56447,1.81915 -2.94702,2.58319 -5.78489,2.9834 0,0 -2.9834,0.327447 -5.53021,-0.909574 0,0 -1.23702,-0.764042 -1.45532,-1.16426 -0.218298,-0.400213 -1.63723,-0.727659 -2.03745,0.036383 -0.400213,0.764042 -2.07383,3.27447 -2.07383,3.27447 0,0 -1.33751,1.77486 0.85056,2.87155 2.18807,1.09669 7.47616,2.74172 13.9675,0.383862 6.49133,-2.35785 9.41301,-7.65775 9.41301,-7.65775 0,0 3.96574,-5.60298 0.400213,-9.45957 -3.56553,-3.8566 -6.72533,-3.49699 -5.77796,-7.1407 0.947365,-3.64371 4.22671,-4.22671 4.22671,-4.22671 0,0 3.20647,-1.02024 5.97569,0.364371 2.76922,1.38461 2.19727,2.08921 3.32514,0.92495 1.12787,-1.16426 2.03745,-3.82021 2.03745,-3.82021 0,0 0.400213,-0.764042 -0.181915,-1.12787z"/>
   <path id="_119156896" class="fil1" d="M223.962 70.4668l-15.7377 29.7498c0,0 -1.3623,2.15807 2.45791,1.72148l2.91064 0c0,0 0.836808,0.036383 1.85553,-2.03745 1.01872,-2.07383 4.98447,-9.93255 4.98447,-9.93255l6.11234 0c0,0 6.51255,-0.291064 11.6426,-5.09362 5.13,-4.80255 6.33064,-10.1508 6.33064,-10.1508 0,0 1.66939,-7.19993 -7.68471,-7.19993 -9.35411,0 -9.59114,0 -9.59114,0 0,0 -2.26105,0.420462 -3.28053,2.94312zm5.35923 2.64989l-5.81673 11.4418c0,0 6.6008,1.0602 9.93764,-2.74161 3.33684,-3.8018 3.17279,-5.20915 3.17279,-5.20915 0,0 0.856949,-3.65562 -2.18818,-3.61902 -3.04512,0.0365995 -5.10553,0.12799 -5.10553,0.12799z"/>
   <polygon id="_119156320" class="fil1" points="7.59711,72.5646 6.59008,75.5857 154.321,75.5857 155.144,72.5153 "/>
   <polygon id="_119155912" class="fil0" points="5.58706,80.492 4.60418,83.5131 148.785,83.5131 149.588,80.4426 "/>
   <polygon id="_119155792" class="fil2" points="0.990786,95.9111 0,98.9322 145.355,98.9322 146.164,95.8618 "/>
   <polygon id="_119155624" class="fil3" points="3.48865,88.218 2.51757,91.2391 144.968,91.2391 145.761,88.1686 "/>
  </g>
 </g>
</svg>
