<?xml version="1.0" encoding="UTF-8"?>
<!DOCTYPE svg PUBLIC "-//W3C//DTD SVG 1.1//EN" "http://www.w3.org/Graphics/SVG/1.1/DTD/svg11.dtd">
<!-- Creator: CorelDRAW -->
<svg xmlns="http://www.w3.org/2000/svg" xml:space="preserve" width="6.791mm" height="10.1916mm" style="shape-rendering:geometricPrecision; text-rendering:geometricPrecision; image-rendering:optimizeQuality; fill-rule:evenodd; clip-rule:evenodd"
viewBox="0 0 6.791 10.1916"
 xmlns:xlink="http://www.w3.org/1999/xlink">
 <defs>
  <style type="text/css">
   <![CDATA[
    .str0 {stroke:#1A5EA5;stroke-width:0.0762}
    .fil0 {fill:#1A5EA5}
    .fil1 {fill:white}
   ]]>
  </style>
 </defs>
 <g id="Layer_x0020_1">
  <metadata id="CorelCorpID_0Corel-Layer"/>
  <g id="_113750128">
   <rect id="_114206392" class="fil0 str0" x="0.0381" y="0.0381" width="6.7148" height="10.1154"/>
   <g>
    <path id="_113749096" class="fil1" d="M0.5602 0.5765l0 1.1467 0.2457 0 3.9644 3.8088 -2.1214 0c0,0 -0.5488,0.0164 -0.6963,-0.5406l0 -1.7856 -1.1794 -1.1631 0 3.4565 -0.2294 0 0 1.1959 4.6197 0c0,0 1.1631,-0.1147 1.0484,-1.3843l-3.907 -3.6777 2.146 0c0,0 0.5815,0.041 0.688,0.5816l0 1.8184 1.0894 0.9829 0 -3.4893c0,0 0.0082,-0.8601 -0.8928,-0.9502l-4.7753 0z"/>
    <g>
     <path id="_113750200" class="fil1" d="M1.0907 7.4597l0.0957 -0.1701c0,0 -0.2092,-0.1489 -0.4431,-0.0532 0,0 -0.1702,0.0745 -0.1383,0.3049 0,0 -0.0071,0.156 0.2623,0.2198 0,0 0.1206,0.0283 0.0958,0.1063 0,0 0,0.0922 -0.156,0.0426 0,0 -0.0851,-0.0319 -0.1418,-0.0816l-0.1135 0.1844c0,0 0.0887,0.1311 0.3439,0.124 0,0 0.2801,-0.0141 0.312,-0.241 0,0 0.0602,-0.2517 -0.1489,-0.3155 0,0 -0.2234,-0.0177 -0.2021,-0.1347 0,0 0.0213,-0.078 0.1099,-0.0426l0.1241 0.0567z"/>
     <path id="_113750056" class="fil1" d="M1.3459 7.2116l0 0.67c0,0 0.0496,0.2801 0.39,0.2659 0,0 0.358,0.0106 0.4076,-0.2304l0.0107 -0.709 -0.2588 0 0 0.5778c0,0 -0.0142,0.1134 -0.1454,0.1241 -0.1311,0.0106 -0.1382,-0.1099 -0.1382,-0.1099l0 -0.5956 -0.2659 0.0071z"/>
     <path id="_113832480" class="fil1" d="M2.8926 7.5293l0.2071 -0.1129c0,0 -0.1615,-0.2198 -0.4159,-0.2156 0,0 -0.4268,0.0214 -0.4552,0.4362 0,0 -0.0402,0.4677 0.4396,0.5069 0,0 0.3935,0.0142 0.4892,-0.3048l0.0071 -0.2376 -0.4857 0 0 0.2021 0.234 0c0,0 -0.0319,0.1205 -0.1843,0.1383 0,0 -0.2056,0.0283 -0.2446,-0.1844 -0.0374,-0.2115 0.0811,-0.3302 0.2162,-0.3393 0.0511,-0.0034 0.1225,0.0368 0.1925,0.1111z"/>
     <path id="_114206824" class="fil1" d="M1.7953 8.6814l-0.3376 0.9307 0.289 -0.0023 0.0333 -0.1741 0.3445 0 0.0455 0.1697 0.2643 0 -0.3278 -0.9351 -0.3075 0 -0.0037 0.0111zm0.1649 0.169l-0.1214 0.3957 0.2278 0 -0.1064 -0.3957z"/>
     <path id="_113750728" class="fil1" d="M3.5653 7.2139l-0.3376 0.9307 0.2889 -0.0023 0.0334 -0.1741 0.3445 0 0.0455 0.1697 0.2643 0 -0.3279 -0.9351 -0.3075 0 -0.0036 0.0111zm0.1648 0.169l-0.1214 0.3957 0.2279 0 -0.1065 -0.3957z"/>
     <path id="_113832912" class="fil1" d="M4.0318 8.6702l-0.3376 0.9307 0.2889 -0.0023 0.0334 -0.1741 0.3445 0 0.0455 0.1697 0.2643 0 -0.3279 -0.9351 -0.3074 0 -0.0037 0.0111zm0.1649 0.1689l-0.1215 0.3957 0.2279 0 -0.1064 -0.3957z"/>
     <polygon id="_113749264" class="fil1" points="4.274,7.2086 4.5481,7.2086 4.5481,7.8974 4.8509,7.8974 4.8509,8.1328 4.2697,8.1328 "/>
     <path id="_113750992" class="fil1" d="M5.9171 7.7611l0.122 -0.1206 0.1363 0.1364 -0.1133 0.1363 0.1851 0.1923 -0.3071 0 -0.0617 -0.0675c0,0 -0.1148,0.1206 -0.2626,0.1206 -0.1478,0 -0.2684,-0.0804 -0.3086,-0.2727 0,0 -0.0129,-0.175 0.1995,-0.2741 0,0 -0.0746,-0.0932 -0.0717,-0.188 0.0028,-0.0947 0.0746,-0.2339 0.2712,-0.2324 0.1966,0.0014 0.2726,0.1478 0.2726,0.2382 0,0.0904 -0.0373,0.1794 -0.1478,0.2282l0.0861 0.1033zm-0.2081 -0.2311c0,0 0.0589,-0.0315 0.0646,-0.1004 0.0058,-0.0689 -0.0516,-0.0632 -0.0516,-0.0632 0,0 -0.0689,-0.0157 -0.0732,0.0603 -0.0043,0.0761 0.0602,0.1033 0.0602,0.1033zm0.0417 0.3617l-0.1263 -0.1335c0,0 -0.1148,0.0746 -0.0531,0.155 0.0617,0.0804 0.1794,-0.0215 0.1794,-0.0215z"/>
     <path id="_113749816" class="fil1" d="M0.5486 8.6637l0 0.9443 0.4392 0c0,0 0.3917,-0.0345 0.3917,-0.4808 0,-0.4463 -0.4334,-0.4663 -0.4334,-0.4663l-0.3975 0.0028zm0.2562 0.2314l0 0.5064c0,0 0.3214,0.0207 0.3214,-0.2607 0,-0.2815 -0.3214,-0.2457 -0.3214,-0.2457z"/>
     <polygon id="_113750032" class="fil1" points="2.6503,8.6861 2.5106,9.6095 2.7662,9.6095 2.8258,9.0575 2.974,9.6095 3.158,9.6095 3.3096,9.0558 3.3897,9.6095 3.6231,9.6095 3.5039,8.6656 3.2262,8.6656 3.0677,9.2159 2.9093,8.6622 2.6503,8.6622 "/>
     <polygon id="_113750296" class="fil1" points="4.8129,9.6104 4.8165,8.666 5.0714,8.6606 5.47,9.2298 5.4754,8.6588 5.725,8.6588 5.725,9.6122 5.4646,9.6122 5.0606,9.0108 5.0606,9.6104 "/>
     <path id="_113750224" class="fil1" d="M5.9817 8.666l0.2639 0 0 0.9444c0,0 -0.2593,0.0105 -0.2621,0 -0.0028,-0.0105 -0.0018,-0.9444 -0.0018,-0.9444z"/>
    </g>
   </g>
  </g>
 </g>
</svg>
