<?xml version="1.0" encoding="UTF-8"?>
<!DOCTYPE svg PUBLIC "-//W3C//DTD SVG 1.1//EN" "http://www.w3.org/Graphics/SVG/1.1/DTD/svg11.dtd">
<!-- Creator: CorelDRAW -->
<svg xmlns="http://www.w3.org/2000/svg" xml:space="preserve" width="139.044mm" height="209.422mm" style="shape-rendering:geometricPrecision; text-rendering:geometricPrecision; image-rendering:optimizeQuality; fill-rule:evenodd; clip-rule:evenodd"
viewBox="0 0 139.044 209.421"
 xmlns:xlink="http://www.w3.org/1999/xlink">
 <defs>
  <style type="text/css">
   <![CDATA[
    .str0 {stroke:#1A5EA5;stroke-width:0.0761999}
    .fil0 {fill:#1A5EA5}
    .fil1 {fill:white}
   ]]>
  </style>
 </defs>
 <g id="Layer_x0020_1">
  <metadata id="CorelCorpID_0Corel-Layer"/>
  <g id="_117649800">
   <rect id="_144204272" class="fil0 str0" x="0.0382626" y="0.0373657" width="138.968" height="209.346"/>
   <path id="_144204248" class="fil1" d="M21.822 153.634l1.9809 -3.52159c0,0 -4.32869,-3.0814 -9.17089,-1.1005 0,0 -3.52159,1.5407 -2.8613,6.30949 0,0 -0.1467,3.2282 5.42919,4.54879 0,0 2.4944,0.586899 1.9809,2.201 0,0 0,1.9075 -3.2282,0.880399 0,0 -1.7608,-0.660299 -2.9346,-1.6875l-2.3478 3.81509c0,0 1.8342,2.7146 7.11659,2.5679 0,0 5.79599,-0.2935 6.45629,-4.98899 0,0 1.2472,-5.20899 -3.0814,-6.52959 0,0 -4.62209,-0.366899 -4.18189,-2.788 0,0 0.3119,-1.6181 2.5993,-0.733399l2.2429 1.0269z"/>
   <path id="_144203792" class="fil1" d="M27.1044 148.498l0 13.8663c0,0 1.0271,5.79599 8.07039,5.50259 0,0 7.40999,0.2201 8.43719,-4.76889l0.2201 -14.6734 -5.35579 0 0 11.9587c0,0 -0.2935,2.3479 -3.0081,2.568 -2.7145,0.2201 -2.8613,-2.2744 -2.8613,-2.2744l0 -12.3255 -5.50249 0.1466z"/>
   <path id="_144204032" class="fil1" d="M36.4044 178.917l-6.98629 19.2625 5.98009 -0.0482999 0.689999 -3.60289 7.12999 0 0.940899 3.51149 5.47029 0 -6.78499 -19.3528 -6.36359 0 -0.0763999 0.23zm3.4126 3.49679l-2.5129 8.18909 4.71539 0 -2.2025 -8.18909z"/>
   <path id="_144204224" class="fil1" d="M73.0352 148.546l-6.98619 19.2625 5.97999 -0.0481999 0.689999 -3.60299 7.12999 0 0.940899 3.51159 5.47039 0 -6.78509 -19.3529 -6.36359 0 -0.0763999 0.23zm3.4126 3.49679l-2.5129 8.18909 4.71539 0 -2.2025 -8.18909z"/>
   <path id="_144204080" class="fil1" d="M82.69 178.685l-6.98629 19.2626 5.97999 -0.0482999 0.689999 -3.60299 7.12999 0 0.940899 3.51159 5.47039 0 -6.78499 -19.3529 -6.36369 0 -0.0762999 0.23zm3.4125 3.49679l-2.5129 8.18919 4.71539 0 -2.2025 -8.18919z"/>
   <polygon id="_144203840" class="fil1" points="87.7033,148.436 93.3759,148.436 93.3759,162.692 99.6425,162.692 99.6425,167.562 87.6142,167.562 "/>
   <path id="_144203960" class="fil1" d="M121.709 159.87l2.5244 -2.4947 2.8215 2.8214 -2.3463 2.8214 3.83119 3.97969 -6.35559 0 -1.2771 -1.3958c0,0 -2.3759,2.4947 -5.43499,2.4947 -3.059,0 -5.55379,-1.6631 -6.38529,-5.64289 0,0 -0.2673,-3.62329 4.12819,-5.67249 0,0 -1.5444,-1.9305 -1.485,-3.89059 0.0593999,-1.9602 1.5444,-4.84099 5.61319,-4.81129 4.06879,0.0297 5.64289,3.0591 5.64289,4.92999 0,1.871 -0.772199,3.71249 -3.0591,4.72219l1.782 2.1384zm-4.30639 -4.78159c0,0 1.2177,-0.653399 1.3364,-2.079 0.1188,-1.4255 -1.0691,-1.3067 -1.0691,-1.3067 0,0 -1.4256,-0.3267 -1.5147,1.2473 -0.0890999,1.5741 1.2474,2.1384 1.2474,2.1384zm0.861299 7.48419l-2.6136 -2.762c0,0 -2.3759,1.5444 -1.0989,3.2075 1.2771,1.6632 3.71249,-0.445499 3.71249,-0.445499z"/>
   <path id="_117650640" class="fil1" d="M10.6039 178.551l0 19.5422 9.08799 0c0,0 8.10789,-0.712799 8.10789,-9.94929 0,-9.23649 -8.96919,-9.65229 -8.96919,-9.65229l-8.22669 0.0593999zm5.30129 4.78759l0 10.4803c0,0 6.65179,0.428699 6.65179,-5.39539 0,-5.82399 -6.65179,-5.08489 -6.65179,-5.08489z"/>
   <path id="_117650616" class="fil1" d="M10.8434 11.18l0 23.7319 5.08499 0 82.0462 78.826 -43.904 0c0,0 -13.6819,-0.1924 -14.4104,-11.1881l0 -36.9543 -24.4087 -24.0714 0 71.5349 -4.74749 0 0 24.7502 95.6082 0c0,0 24.0712,-2.3738 21.6975,-28.6492l-80.8584 -76.1128 44.413 0c4.36269,0 14.1208,0.848499 14.2388,12.0366l0 37.6332 22.546 20.3419 0 -72.2138c0,-6.46319 -2.8209,-20.0501 -18.4772,-19.6651l-98.8285 0z"/>
   <path id="_117650664" class="fil1" d="M59.1141 155.073l4.28699 -2.3349c0,0 -3.3441,-4.54999 -8.60889,-4.46259 0,0 -8.83259,0.443299 -9.41949,9.02719 0,0 -0.831899,9.67939 9.09749,10.4915 0,0 8.14369,0.2935 10.1246,-6.30959l0.1467 -4.91549 -10.0512 0 0 4.18189 4.84219 0c0,0 -0.660299,2.4944 -3.81509,2.8613 0,0 -4.25529,0.586899 -5.06229,-3.81509 -0.772499,-4.37769 1.6801,-6.83479 4.47589,-7.02169 1.0574,-0.0705999 2.5352,0.760199 3.98309,2.2975z"/>
   <polygon id="_117650520" class="fil1" points="54.0998,179.014 51.2085,198.125 56.4974,198.125 57.7315,186.701 60.7991,198.125 64.6071,198.125 67.7452,186.665 69.4024,198.125 74.233,198.125 71.7648,178.591 66.0175,178.591 62.7384,189.98 59.4592,178.52 54.0998,178.52 "/>
   <polygon id="_117650112" class="fil1" points="98.8558,198.144 98.9301,178.599 104.206,178.488 112.456,190.267 112.567,178.45 117.732,178.45 117.732,198.181 112.344,198.181 103.984,185.733 103.984,198.144 "/>
   <path id="_117649848" class="fil1" d="M123.046 178.599l5.46219 0 0 19.5452c0,0 -5.36689,0.2172 -5.42509,0 -0.0580999,-0.2173 -0.0370999,-19.5452 -0.0370999,-19.5452z"/>
  </g>
 </g>
</svg>
